<svg width="100" height="100" viewBox="0 0 100 100" fill="none" xmlns="http://www.w3.org/2000/svg">
<path d="M72.4 25.6C78.6 33.8 82.8 41.9 82.9 50C82.9 58.2 78.7 66.3 72.5 71.8C66.3 77.2 58.2 80 50.5 79.5C42.8 79 35.6 75.3 27.5 69.9C19.5 64.4 10.6 57.2 9.29999 48.7C8.09999 40.2 14.3 30.4 22.3 22.2C30.4 14.1 40.2 7.5 49.1 8.4C58.1 9.3 66.2 17.5 72.4 25.6Z" fill="url(#paint0_linear_2:2)"/>
<path d="M76.8914 21.7391C82.8603 29.6813 86.9037 37.5267 87 45.372C87 53.3143 82.9566 61.1596 76.9877 66.4867C71.0188 71.717 63.2207 74.429 55.8077 73.9447C48.3948 73.4604 41.4632 69.8767 33.6651 64.6465C25.9633 59.3193 17.3951 52.3457 16.1435 44.1129C14.9883 35.8801 20.9571 26.3882 28.6589 18.4459C36.457 10.6006 45.8917 4.20805 54.4599 5.07976C63.1244 5.95146 70.9225 13.8937 76.8914 21.7391Z" fill="black"/>
<defs>
<linearGradient id="paint0_linear_2:2" x1="9.15091" y1="79.5571" x2="80.3477" y2="5.85223" gradientUnits="userSpaceOnUse">
<stop stop-color="#F87537"/>
<stop offset="1" stop-color="#FBA81F"/>
</linearGradient>
</defs>
</svg>
