<svg
    class="img-fluid"
    id="outputsvg"
    xmlns="http://www.w3.org/2000/svg"
    style="transform: matrix(0.769231, 0, 0, 0.769231, 0, 0); cursor: move; transition: transform 200ms ease-in-out 0s;"
    width="390"
    height="390"
    viewBox="0 0 3690 3900"
>
    <g id="l6fbqmiAMZgtwKb1ZYu75wi" fill="rgb(55,59,65)" style="transform: none;">
        <g>
            <path
                id="pTrMUeLxD"
                d="M218 3274 c-2 -331 0 -486 8 -503 9 -20 106 -61 595 -252 321 -126 590 -229 598 -229 8 0 19 6 25 14 9 12 83 -14 441 -153 237 -92 429 -171 428 -176 -1 -5 -79 -40 -175 -77 -672 -266 -1462 -576 -1668 -654 l-245 -92 -3 -476 c-1 -262 0 -476 4 -476 5 0 469 178 888 341 168 65 180 69 197 53 17 -15 43 -7 428 147 362 144 408 165 400 180 -6 11 -5 20 0 24 6 3 320 129 698 279 l688 274 0 477 0 478 -780 308 c-973 386 -2484 980 -2507 986 -17 5 -18 -25 -20 -473z"
            ></path>
        </g>
    </g>
    <g
        id="l31987HamuRox9DjyRsz2or"
        fill="rgb(246,140,46)"
        stroke="rgb(246,140,46)"
        stroke-width="10"
        style="transform: none;"
    >
        <g>
            <path
                id="peCnVjeoD"
                d="M516 2182 c168 -339 309 -621 314 -626 4 -4 186 62 407 149 219 87 404 160 411 162 8 4 -22 72 -98 219 -61 118 -109 218 -106 222 2 4 -260 110 -582 237 -323 126 -601 235 -619 242 -30 12 -19 -12 273 -605z"
            ></path>
            <path
                id="p5u1JMvlY"
                d="M1715 774 l-411 -165 124 -245 c67 -134 126 -243 130 -241 4 3 187 75 407 162 220 87 403 160 407 164 6 5 -238 493 -245 490 -1 0 -187 -75 -412 -165z"
            ></path>
        </g>
    </g>
</svg>